<svg xmlns="http://www.w3.org/2000/svg" width="527" height="312" viewBox="0 0 527 312">
    <g fill="#000" fill-rule="evenodd">
        <path fill-rule="nonzero" d="M246.957 232.107c0 44.763-36.937 73.876-96.169 73.876H.633v-41.659h33.79V80.466H.633V38.807h144.953c56.565 0 89.175 27.102 89.175 68.368 0 28.676-15.343 52.456-39.691 60.499 35.757 7.081 51.844 34.184 51.844 64.433h.043zm-165.41-80.563h60.892c33.003 0 48.084-14.557 48.084-36.938 0-21.594-14.95-34.184-48.084-34.184H81.546v71.122zm67.973 112.78c34.971 0 51.058-16.524 51.058-37.331 0-21.595-16.087-33.004-46.774-33.004H81.546v70.335h67.974z"/>
        <path d="M399.823 195.956c29.463 5.115 58.925 20.808 58.925 57.746 0 34.97-26.228 58.138-71.515 58.138a101.852 101.852 0 0 1-66.794-22.774v16.917h-41.265v-64.04l41.265.393.394-.393c16.48 19.627 32.61 34.577 61.198 34.577 24 0 30.6-10.229 30.6-20.02 0-9.792-7.082-18.054-23.955-21.202l-33.79-5.507c-40.086-7.082-68.368-23.955-68.368-58.533 0-37.33 32.61-56.827 75.843-56.827 22.774 0 39.341 6.295 50.663 17.485v-12.152h40.872v57.352h-40.872c-15.343-16.873-26.709-27.89-49.877-27.89-20.807 0-29.069 9.05-29.069 19.235 0 10.185 6.688 17.485 28.283 21.594l37.462 5.901zM338.406 86.323h-70.729V73.035h10.754V14.546h-10.754V1.301h41.616v13.245h-15.868v58.27h30.511V57.822h14.47z"/>
        <path fill-rule="nonzero" d="M443.492 86.323h-37.855V73.21h12.502l-5.902-12.764h-37.506l-5.464 12.415h11.366v13.114h-35.758V72.86h8.393l27.234-58.489H368V1.257h32.74l33.354 71.603h9.617v13.114l-.219.35zM393.484 19.18l-12.895 28.5h25.878l-12.983-28.5zM526.46 62.806c0 14.25-11.759 23.517-30.599 23.517h-47.779V73.21h10.754V14.59h-10.754V1.477H494.2c18.01 0 28.37 8.743 28.37 21.857a19.452 19.452 0 0 1-12.633 19.233c9.937 1.598 17.055 10.453 16.48 20.502l.043-.262zM474.004 37.19h19.365c10.492 0 15.256-4.634 15.256-11.76 0-7.125-4.764-10.884-15.256-10.884h-19.365V37.19zm21.289 35.67c11.147 0 16.261-5.246 16.261-11.89 0-6.645-5.114-10.491-14.862-10.491h-22.994v22.38h21.595z"/>
    </g>
</svg>
