<svg xmlns="http://www.w3.org/2000/svg" width="29" height="22"><g fill="#FFF" fill-rule="evenodd" stroke="#FFF"><path fill-rule="nonzero" d="M13.431.192a1.407 1.407 0 00-1.435.02.432.432 0 00-.06.044L5.638 5.582H.698a.464.464 0 00-.465.465v8.829a.463.463 0 00.465.464l4.93-.002 6.293 5.78c.023.022.048.04.075.056.228.138.482.207.735.207a1.45 1.45 0 001.442-1.467V1.474a1.45 1.45 0 00-.742-1.281zM5.233 7.005h1v7h-1v-7zm8.01 12.91c0 .2-.1.376-.268.471a.487.487 0 01-.465.012L6.274 14.67v-2.117a.464.464 0 10-.93 0v1.857l-4.182.002v-7.9h4.182v1.86a.464.464 0 10.93 0V6.261L12.503.993a.486.486 0 01.472.008.533.533 0 01.269.472v18.442z"/><path d="M22.028 1.89a.465.465 0 00-.299.88 8.122 8.122 0 01.01 15.384.465.465 0 00.301.88 9.056 9.056 0 006.135-8.572 9.05 9.05 0 00-6.147-8.573z"/><path d="M23.993 10.461a6.3 6.3 0 00-4.53-6.023.465.465 0 00-.257.893 5.366 5.366 0 013.858 5.13 5.366 5.366 0 01-3.858 5.13.465.465 0 00.257.893 6.3 6.3 0 004.53-6.023z"/></g></svg>